<svg xmlns="http://www.w3.org/2000/svg" viewBox="0 0 512 512">
  <defs>
    <style>
      .cls-1 {
        fill: #559aff;
      }

      .cls-2 {
        fill: #69a6ff;
      }

      .cls-3 {
        fill: #2b81ff;
      }

      .cls-4 {
        fill: #b2d1ff;
      }

      .cls-5 {
        fill: #19e77c;
      }

      .cls-6 {
        fill: #3feb92;
      }

      .cls-7 {
        fill: #00cd6c;
      }

      .cls-8 {
        fill: #79f1b3;
      }

      .cls-9 {
        fill: #bcf8d9;
      }
    </style>
  </defs>
  <title>E Commerce_512px</title>
  <g id="Currencies">
    <g>
      <g>
        <circle class="cls-1" cx="309.33333" cy="309.33333" r="138.66667"/>
        <circle class="cls-2" cx="309.33333" cy="309.33333" r="96"/>
        <path class="cls-3" d="M407.38547,407.38547a138.66665,138.66665,0,0,0,0-196.10428l-.10806-.10784-.0263-.02629-.107-.10658-.01053-.01053-.09943-.099-.02555-.02532-.10635-.10542-.01766-.01744-.0942-.09328-.02411-.02365c-.03557-.03533-.07044-.06974-.10623-.10485l-.02227-.022-.0923-.09092-.02262-.02215-.10547-.10364-.02688-.02618-.08988-.088-.02158-.02112-.10652-.10422-.02457-.02388-.09828-.096-.01353-.01306-.10732-.10433-.028-.02728-.10007-.09708-.00927-.0088c-.03579-.03487-.07049-.06842-.10651-.10306l-.03033-.02941-.10617-.10248-.00834-.00812-.10145-.09754-.029-.02808-.1064-.10225-.015-.01433-.09656-.09242-.02681-.02566-.10778-.10318-.01744-.01652-.096-.09161-.02457-.02342-.11055-.10525-.01346-.01277-.1026-.09731-.01848-.01755-.11065-.10467-.02055-.0194-.097-.09172-.02025-.01911-.10807-.10185-.02486-.02348-.10318-.097-.009-.00829-.1121-.10519-.02279-.02141-.10789-.10076-.00576-.00552-.1121-.1045-.02342-.02181-.113-.10513-.00155-.00156-.11106-.103-.02313-.02152-.11106-.10278-.01583-.01467-.09742-.09006-.02693-.02486-.10968-.10116-.01646-.01508-.1003-.09224-.02106-.01922-.11095-.102-.02066-.01882-.10041-.0919-.01755-.01594c-.0366-.0336-.07447-.068-.11118-.10151l-.02411-.022-.09949-.09051-.01548-.0141-.11032-.10019-.027-.02468-.1041-.0942-.00863-.00794-.11412-.10307-.02255-.02025c-.07366-.06652-.15359-.13863-.22748-.20492l-.02532-.02279-.11284-.10133-.00771-.00679-.10456-.09374-.029-.02578c-.03695-.033-.073-.06537-.11-.09829l-.01559-.014-.09829-.08747-.02779-.0248-.10968-.09748-.02089-.01859-.09777-.08649-.02307-.02054-.11187-.099-.02118-.01864-.10018-.08845-.01876-.01645-.11262-.099-.02347-.02072-.1018-.08936-.01588-.01381c-.03723-.03263-.07585-.06664-.11319-.09915l-.02377-.02078c-.03464-.03026-.0744-.06519-.1091-.09529l-.00639-.0057-.1144-.09966-.02463-.02141-.11509-.10013-.0019-.00167-.11342-.09822-.02514-.02193-.11394-.09851-.01013-.00875-.10674-.092-.02348-.02025-.11457-.09869-.01427-.0122-.10427-.08954-.02325-.02-.11158-.09547-.02469-.02123-.09736-.0831-.02112-.01812-.11331-.09651-.02371-.02025-.10306-.08764-.01519-.01289-.11589-.09817-.02193-.01871-.10951-.0927-.00851-.00714-.11653-.09834-.02313-.01945-.11526-.09708-.0019-.00167-.11642-.09776-.02509-.02095q-.11739-.0984-.23506-.19686l-.021-.01732-.11923-.09944-.00443-.00374-.11336-.09426-.02262-.01893-.1175-.09748-.00979-.00794-.11284-.09351-.01606-.01329-.12-.09909-.01295-.01065-.11129-.09172-.01508-.01232-.1201-.09869-.01438-.01185-.11722-.096-.0057-.00455-.12383-.10128-.01209-.00978c-.08159-.06664-.16578-.13517-.24744-.20164l-.0149-.01214c-.08177-.06635-.1628-.13195-.24462-.19812l-.018-.01456c-.08182-.06618-.16181-.13074-.24381-.19663l-.01715-.01393-.12217-.098-.005-.00408-.118-.09455-.01576-.01254-.12206-.09766-.01058-.00851-.11457-.09133-.01456-.01156-.12188-.097-.01393-.01094-.1129-.08965-.0137-.01093-.11929-.09443-.02088-.01652-.11377-.08983-.00742-.00581-.12206-.096-.01852-.01462c-.08258-.06485-.16211-.12734-.24474-.192l-.01888-.01473c-.08263-.06468-.1629-.12746-.24571-.19186l-.01749-.01358q-.12405-.09675-.24842-.19317l-.0141-.01088c-.08287-.06422-.16913-.13091-.25216-.19485l-.012-.00926-.12648-.09748-.00524-.00409-.12153-.09322-.0118-.009-.12637-.09691-.00748-.00564-.12435-.09512-.0057-.00431c-.0416-.03171-.085-.065-.12677-.09662l-.012-.00927-.12423-.09454-.00236-.00167-.12637-.096-.01421-.01077c-.08344-.06318-.17126-.12959-.25487-.19248l-.00938-.00708c-.0835-.063-.17188-.12953-.25555-.19226l-.01284-.00961c-.08367-.06272-.17142-.12838-.25521-.191l-.01174-.00874-.12826-.09558-.0034-.00248-.124-.09224-.0122-.009c-.04183-.03125-.08453-.0629-.12659-.09391l-.00938-.00708-.12257-.09058-.00823-.00615-.12787-.09426-.01058-.00783c-.08408-.062-.17333-.12751-.25746-.18932l-.012-.00874c-.08424-.06169-.1701-.12453-.2544-.186l-.01819-.01335q-.12636-.09217-.25273-.18391l-.01381-.0099c-.08436-.06134-.17079-.12383-.25527-.18483l-.01519-.01105c-.08453-.061-.17177-.12389-.25648-.18466l-.01208-.00886c-.08465-.06071-.17574-.126-.26045-.18656l-.009-.00644-.13184-.09409-.00149-.001-.134-.09553-.001-.00057c-.04518-.03229-.08707-.062-.13236-.09415l-.00828-.00575c-.08764-.06232-.17632-.125-.26413-.187l-.00616-.00432c-.09069-.064-.1754-.1236-.26614-.18742l-.0053-.00368c-.09086-.0637-.17585-.12338-.26677-.18691l-.00582-.004c-.09092-.06353-.17838-.12452-.26948-.18776l-.00132-.00087c-.091-.06335-.181-.12573-.27213-.1888l-.00092-.00046c-.13672-.09461-.2727-.18823-.4096-.28232l-.00184-.00115c-.09127-.06272-.18086-.124-.2723-.18644l-.00179-.00109c-.09143-.06244-.1804-.12309-.272-.18518l-.00322-.0023c-.09161-.06215-.17948-.12171-.27115-.18369l-.00415-.00276c-.09166-.062-.17695-.1194-.26879-.18109l-.00811-.00535c-.09173-.0618-.17856-.11987-.27046-.18138l-.00224-.00156a138.90358,138.90358,0,0,0-132.59668-11.67773A21.33333,21.33333,0,1,0,270.803,221.36425,96.02374,96.02374,0,0,1,377.21558,377.21558h0a96.56562,96.56562,0,0,1-107.17806,19.74784,21.33333,21.33333,0,0,0-17.4914,38.91648q3.64119,1.63311,7.354,3.04646l.00143.00052c.09846.03746.19335.07343.29181.11066l.00846.00316c.16418.06221.32087.12108.48522.18253l.00293.0011c.09875.03682.195.07279.29377.10939l.0023.00092.28674.10605.01594.00582c.09052.03343.19116.07031.28168.10352l.01629.00592c.09063.03309.18713.06837.27788.10134l.0271.00984.17592.06382.006.00207.09282.03366.01818.00645.17529.06318.01317.00466.09334.03349.0118.0042c.05357.01928.114.0408.16762.05991l.03332.01191c.08661.0309.17833.06347.26517.09414l.0374.01324c.08672.03078.17125.06053.258.09109l.049.01721.123.04316.05415.01893.07527.02624.05329.01853.11209.03913.06238.02163.07216.025.0606.021.11238.03873.05783.02008.07245.0248.073.02515.09592.03286.0633.02164.0709.02416.07527.02578.09759.03315.05927.02014.07124.024.104.03522.067.02256.06779.0229.06077.02049.11008.03688.06468.02164.06854.023.09155.03056.08091.02681.06278.02089.07648.02538.08643.02866.08027.02641.05806.01916.0938.031.077.0252.07647.02515.05783.01893.11573.03769.0515.01675.08534.02779.04966.01606.11831.03844.05237.01692.08712.028.04874.01583.117.03757.05576.01779.08424.02693.06842.02192.09322.02969.06279.02.0839.02659.07417.02353.0904.02849.05363.017.11527.03631.04994.01565.08649.02711.05381.01674.11865.03718.04811.015.09075.02814.047.01456.124.03838.04316.01346.09541.02935.0435.01335.12338.038.04436.01352.10784.033.02878.00875.129.03925.04045.01237.12752.03867.02.006.12015.03637.03884.01168.13149.03942.0248.00754.11826.03539.03142.00932.13229.03953.03326.00979.11457.034.02613.00771.13563.04011.03044.009.12067.0355.0221.00645.13414.0393.03562.01053.12429.03614.01335.00391.135.03925.03545.01036.13627.03936.00811.00236.12855.03694.03839.011.13361.03833.01715.005.123.035.03263.00938.13466.03821.02566.00725.11935.03372.02935.0084.13574.03815.02722.00766.12413.03481.01956.00553.13621.03792.0336.00944.12079.03354.02077.00582.13569.0374.03269.009.13793.038.00541.0015.13644.03746.02728.00748.14041.03821.01415.0038.13287.0362.02083.00563.14576.03942.00817.00219.14041.03775.01514.00408.143.03833.02152.00564.135.036.01123.00294.1438.03815.02135.00569c.09771.0259.19381.0511.29158.07683l.01858.00477c.09771.02567.19934.05225.29722.07763l.0118.003c.09788.02538.20186.05225.29975.0774l.01306.00339.14933.03838.00673.00167.14674.03741.00817.00218.15186.03862.0057.00132c.1045.02647.20255.05133.30717.07745l.00621.00162c.10117.02543.20394.0511.30528.07624l.01012.00253c.46738.11613.93884.23059,1.40708.34182l.00236.00052a139.03333,139.03333,0,0,0,95.53492-11.52824l.00046-.00023c.09759-.05018.1934-.09961.29083-.15l.00351-.00178c.09753-.05047.19047-.09863.28783-.14927l.0053-.00277c.09754-.05069.19024-.09909.28761-.15l.00316-.00167c.09731-.05092.19231-.1007.28956-.15191l.00121-.00064q.36444-.19179.72742-.38549l.00046-.00023c.09691-.05179.19134-.10237.28813-.15427l.00477-.00259c.09691-.052.18864-.1014.28548-.1537l.00478-.00259c.09685-.05231.18886-.10209.28548-.15463l.00408-.00212c.09673-.05266.1895-.10307.28606-.15589l.00345-.00184.14208-.07775.004-.00218c.09651-.05289.18639-.10226.28272-.15532l.00978-.00541q.14026-.07725.28053-.155l.00622-.00346c.09644-.0534.18592-.10317.2822-.15675l.00621-.00345q.13983-.078.27967-.15629l.0103-.00581.13925-.078a.01432.01432,0,0,1,.0019-.0011l.13621-.0767.0099-.00553.137-.07728.00967-.00552.13627-.07711.00224-.00121.138-.07838.01249-.00707c.09276-.05272.18334-.10439.2761-.15733l.00851-.00484c.09576-.05478.18432-.10547.28-.16054l.00512-.00294c.09564-.0549.18587-.10692.28145-.1621l.00483-.00276c.14334-.08293.28364-.16429.42675-.24768l.00294-.00166c.09535-.05565.185-.108.28024-.16378l.009-.00523c.08937-.05243.18489-.10859.27414-.16113l.01347-.00794c.08925-.05254.18431-.1087.27334-.16147l.00926-.00546c.09207-.05456.18288-.10853.27495-.16332l.01013-.006c.095-.05668.18322-.10934.27811-.16613l.00385-.00236.13846-.083.007-.00426.134-.08056.00518-.00311.136-.082.01093-.00656c.08885-.05363.183-.11071.27178-.16463l.01209-.00725c.08862-.05387.18207-.11072.27069-.16481l.01271-.00777c.08862-.05409.17856-.10916.267-.16343l.01738-.0107.13045-.08016.013-.00794.1247-.07694.012-.00731.1323-.08177.01375-.00857.12919-.08005.00454-.00281.13276-.08247.01674-.01041c.08816-.05478.17828-.11106.26649-.16625l.01318-.00823q.13215-.08261.264-.16549l.01963-.01238.13177-.083.001-.00063.12942-.08165.01749-.01105.13259-.084.00385-.00236.12838-.08154.01439-.00909.13022-.08292.01422-.009.125-.07981.00915-.00581.1308-.08373.01588-.01013c.0877-.05616.17707-.11365.26459-.17l.01358-.00875c.08753-.05634.17839-.11509.26574-.1716l.01341-.00869.13339-.08643.00178-.00121.13086-.085.01225-.008.13322-.08683.00587-.0038.13017-.08505.00822-.00535.13224-.08666.0122-.00806c.08712-.0572.17948-.11791.26643-.17528l.01071-.007c.08706-.05749.17752-.11733.26447-.17494l.01651-.01087c.087-.05778.17247-.11457.25936-.17246l.01864-.01243.12919-.08626.00524-.00351.12262-.082.02066-.01387.12631-.08476.01295-.00869.12222-.08218.01128-.00759.12936-.08724.01479-.01007.124-.08384.00731-.00489.13028-.08839.01456-.00984q.12973-.08814.25952-.17666l.01727-.01174c.08643-.059.1709-.11682.25722-.176l.01865-.01289c.0862-.05905.173-.11883.25918-.17816l.01346-.00932.12827-.08857.01346-.00932.1201-.08315.01277-.00886.12764-.08851.01519-.01058.126-.08764.00282-.002.12677-.08844.02279-.01589.12355-.08637.00121-.00086.12637-.08862.02163-.01519c.08574-.0602.16608-.11682.25164-.17718l.02055-.01445.12579-.089.00852-.006.11773-.08343.02089-.01479.12447-.08845.014-.01.114-.0812.0191-.01358.12355-.08822.01784-.01277.11768-.08419.011-.00788.12315-.08839.0237-.017.11941-.08592.00437-.00322.12263-.08845.02526-.01824.123-.089.00242-.00173.12119-.08781.02382-.01738.12038-.08747.01842-.01335.10835-.079.022-.016.12124-.08868.01957-.01427.11094-.08125.01727-.01266.12234-.08989.02042-.015.11481-.08453.01064-.00777.12073-.08919.02676-.01974.11445-.08465.00766-.00569.11958-.08874.028-.02077.121-.09006.00063-.00052.121-.09011.02422-.01813.12079-.09029.01266-.00943.11221-.08413.022-.01646.121-.091.01588-.012.11319-.08522.01577-.01185.1205-.091.02359-.01784.10887-.0824.01508-.0114.11958-.0908.02445-.01859.11832-.09.00287-.00218.12154-.09277.02365-.018.12193-.09328.00259-.002.11809-.09046.02474-.019.12038-.09253.01013-.00783.11308-.08718.02117-.01634.119-.09184.01968-.01531.11-.08517.01571-.01214.11969-.093.02267-.01761.11222-.08735.00972-.00754.11906-.09293.02613-.02037.11865-.09288.00029-.00017.121-.09489.02411-.01894.12044-.09477.002-.0015.11584-.09132.02739-.02164.11716-.09253.01416-.01116.1072-.085.0244-.01933.11831-.09391.0156-.01249.10962-.08718.0183-.01462.11877-.09483.01986-.01583.11037-.08827.0134-.01076.11774-.09449.02428-.01945c.07988-.06422.15923-.128.23893-.19243l.02307-.01858.12-.097.00294-.00236.11837-.09593.01985-.01605.12055-.09789.009-.00736.11647-.09484.0137-.01116.121-.0988.01675-.01364.10835-.08868.01733-.01421.11687-.09581.02284-.01882.11026-.09069.00938-.00765.11894-.09812.02158-.01778q.11877-.09805.2372-.19623l.02567-.02129.11779-.09788.00161-.00138.11561-.09616.02382-.01991.11641-.09719.01468-.01226.1064-.089.02192-.01836.11515-.09661.02089-.01755.104-.08747.01761-.01485.11577-.09759.02325-.01957.106-.08965.01335-.01128.11578-.09806.02451-.02083.11118-.09437.00633-.00541.11342-.0965.02894-.02469.11164-.09529.01836-.01571.09909-.08482.02843-.02429.11324-.09713.01548-.0133.10307-.08867.02336-.02014.1125-.097.02422-.02089.09841-.08505.02175-.01876.11158-.09674.027-.02342.1014-.088.01467-.01272.11187-.09736.02865-.025.11245-.09817.00138-.00115.11405-.09978.02849-.02492.11244-.09863.0088-.00777.10634-.09345.02607-.023.1129-.09955.01577-.01393.10209-.09011.02365-.021.11244-.09955.02071-.01841.09806-.087.02342-.02077.11031-.09823.02509-.02233.10071-.08988.01663-.01491.11134-.09949.026-.02331.11313-.10139.00057-.00058.11492-.10329.02388-.02146.11406-.10278.00759-.0069.10974-.099.02089-.01893.11267-.10208.0191-.01727.09956-.09034.02106-.01922.11232-.1022.02061-.01876.10242-.09345.01589-.0145.11255-.10289.02365-.0217.10318-.09454.012-.011.11106-.10209.02682-.02474.1057-.09731.00979-.00909.10726-.099.02975-.02756.10974-.10157.01013-.00943.10242-.09507.02688-.02491.1091-.10151.01945-.01807.09679-.09035.02406-.02244.10945-.10231.02186-.02049.09921-.093.01692-.01577.11037-.10369.02561-.02411.09673-.0911.01766-.01663.1094-.10329.0248-.02354.11117-.10519.00087-.00075.11146-.10582.02526-.024.10962-.10421.01531-.01461.09639-.0919.02866-.02728.10663-.10191.02117-.02026.09248-.08867.02658-.02544.10542-.10128.02653-.02549.0938-.09034.01933-.01865.10755-.10375.02682-.02589.09869-.09559.01254-.01208.108-.10473.02768-.02687c.07239-.07032.14754-.14341.21976-.2139l.026-.02537.10841-.10589.01255-.01231.09771-.09564.02728-.02682.10686-.1049.01847-.01813.09581-.09431.02273-.02239.10836-.10686.01979-.01956.09685-.09581.01876-.01853.1083-.10738.02227-.02216.09984-.09926.01329-.01318.10732-.107.026-.02584.10893-.10882Z"/>
        <path class="cls-4" d="M226.36614,392.30053l.06583.06583.012.01191.05219.05208.02376.02365.04046.04034.02756.02745.03706.03683.02889.02865.03706.03683.0267.02647.03815.03781.02889.02866.035.0347.03.02963.03487.03441.03148.03113.03223.03177.0328.03234.03211.03165.0328.03234.036.03539.0282.02773.049.04811.01617.01583.065.0637.01836.018.04667.04563.02313.02267.04345.04242.02584.02526.03636.03544.03367.03286.03274.03194.03056.02975.03493.03389.03078.03.03459.03355.032.03108.03286.03182.03176.03084.03626.03511.02854.02762.04016.03878.02481.024.04511.0435.02089.02008.05012.0484.01588.01519.06566.06324.01456.014.05156.04948.022.02107.04345.04171.0248.02377.04143.03959.0267.02555.03885.03712.027.02589.03971.03787.02814.02687.03527.03355.0324.0309.03211.0305.03493.0332.03113.02964.03332.03159.03429.03245.032.03039.03251.03078.034.03211.02814.02665.04949.04672.05317.05018.01243.01174.05334.05024.02371.02232.04293.0404.02814.02641.036.03378.03406.032.0324.03044.03378.03159.03257.0305.03222.03015.03522.03292.03153.02946.0343.032.03119.02912.03827.03562.02819.02636.037.03435.03015.02808.03424.03183.03332.0309.02842.02635.03787.0351.02066.01917.08044.07446.02883.02664.03614.03338.03038.02808.03177.02923.03619.03332.03027.028.03672.03372.03044.028.035.03217.03384.03107.03217.02952.03475.03177.031.02843.03729.03406.02837.02595.03717.034.03.0275.03723.0339.0324.02952.03211.02934.03643.03309.03239.02952.02135.0194.09.08171.01836.01663.039.03533.0286.02595.04218.03816.02227.02008.04339.03924.02457.02216.03862.03481.0294.02653.03551.03194.0332.02986.03384.03039.03234.02911.03481.03125.03338.02992.03383.03039.03257.02912.03436.03078.03423.03067.03355.03.03033.027.03706.03315.03711.03309.03936.035.057.05076.02147.019.04546.0404.02889.02567.03815.03389.03372.02981.03343.02963.0332.02941.03436.03032.03493.03091.03182.028.03545.0313.03142.02774.03746.033.03027.02659.03562.03136.03378.02975.03423.03.03223.02831.03568.03131.02664.0233.0427.03741.01795.01565.04679.04091.06646.05807.02912.02543.03976.03458.032.02786.03418.0298.034.02952.03608.03137.0309.02687.03637.03153.03136.02711.03757.03263.03321.02871.03073.02659.0389.0336.02952.02549.03821.03292.02877.02486.039.03355.02894.02491.03959.03407.02227.01916.04644.03988.01007.00857c.05593.04811.10951.094.1655.14179l.024.02061.03884.0332.029.02468.04028.0343.0282.02406.03838.03274.02923.02486.03907.0332.03062.026.0351.02981.03274.02779.03861.03275.02855.02416.03826.0324.02981.02521.04017.034.027.02273.03982.0336.02808.02371.042.03533.01824.01537.04885.04114.00512.00432.11325.09506.01479.01237.05611.047.01.0084.05087.04258.01841.01542.04754.03971.0206.01715.04241.03539.02923.0244.03982.03314.02589.02152.04374.03637.02474.0206.04339.036.0248.02054.0427.03533.026.02164.04471.037.01364.01122c.1049.08684.21044.17373.31558.2601l.00633.00518.05259.04316.01692.01393.04707.03855.02152.01761.04851.03965.01922.01576.049.04.0179.01456.05288.0431.0137.01117.05236.0427.01686.01375.05346.04345.01007.00811.05662.046.01232.01c.12913.10473.25929.2098.38877.314l.00265.00219.063.05052.0046.00368.05922.04759.01024.00817.05893.04719.0073.00581.05738.046.01421.01134.055.044.01036.00829.05777.046.01025.00817.05961.04742.00087.00075c.15652.12453.31045.24635.46737.37l.00271.00213.06364.05006.00455.00351.06134.04823.00731.00581.12993.10185.00426.00334.13235.10335.00012.00011c.17983.14036.35867.27915.53919.41835l.00173.00127.13431.10346.001.00081.06618.05075.00247.0019.06474.04966.00455.00351q.40266.3086.80792.61366l.01036.00782.06146.04627.00253.00184a116.88912,116.88912,0,0,0,63.556,23.23791,21.33332,21.33332,0,1,0,2.46739-42.59524A74.53269,74.53269,0,0,1,256.536,362.13064a21.33333,21.33333,0,0,0-30.16989,30.16989Z"/>
      </g>
      <path class="cls-5" d="M128,384a21.33272,21.33272,0,0,0-21.33333,21.33333v13.88933A191.15407,191.15407,0,0,1,64.91975,317.54134a21.08063,21.08063,0,0,0-21.071-18.87467h0A21.50388,21.50388,0,0,0,22.508,322.29142,233.61716,233.61716,0,0,0,74.97656,448H64a21.33333,21.33333,0,0,0,0,42.66667h64a21.33334,21.33334,0,0,0,21.33333-21.33334v-64A21.33272,21.33272,0,0,0,128,384Z"/>
      <path class="cls-1" d="M385.06661,128A21.33272,21.33272,0,0,0,406.4,106.66667V92.77734a191.15414,191.15414,0,0,1,41.74691,101.68132,21.08065,21.08065,0,0,0,21.071,18.87467h0a21.50388,21.50388,0,0,0,21.34067-23.62475A233.61708,233.61708,0,0,0,438.09005,64h10.97656a21.33334,21.33334,0,1,0,0-42.66667h-64a21.33334,21.33334,0,0,0-21.33333,21.33334v64A21.33272,21.33272,0,0,0,385.06661,128Z"/>
      <g>
        <circle class="cls-5" cx="202.66667" cy="202.66667" r="138.66667"/>
        <circle class="cls-6" cx="202.66667" cy="202.66667" r="96"/>
        <path class="cls-7" d="M202.66667,341.33333A138.66665,138.66665,0,0,0,341.33333,202.66667l-.00016-.15267v-.03719l-.00032-.151v-.01489l-.00033-.1403-.00016-.036-.00065-.14974-.00017-.02482-.00065-.13257-.00032-.03377c-.00017-.05013-.00049-.09912-.001-.14925l-.00016-.03133-.001-.12956-.00032-.03166-.00131-.14786-.00049-.03752-.0013-.12581-.00032-.0302-.00163-.149-.00049-.03426-.00163-.13737-.00032-.0188-.00212-.14966-.00049-.03906-.00211-.13941-.00033-.01277c-.00065-.05-.00146-.09823-.00244-.1482l-.00065-.04223-.0026-.14755-.00017-.01163-.00276-.14071-.00065-.04036-.00293-.14755-.00049-.02075-.00293-.13363-.00082-.0371-.00325-.14917-.00065-.024-.0031-.13265-.00081-.03394-.00374-.15258-.00049-.01856-.00374-.14136-.00066-.02547-.00423-.15226-.00081-.02824-.00374-.13346-.00082-.02784-.00439-.14843-.001-.03418-.00439-.14152-.00049-.01221-.00488-.15365-.001-.03125-.005-.14754-.00016-.008-.00537-.15316-.00114-.032-.00553-.15422v-.0022l-.0057-.15136-.00114-.03158-.00586-.1512-.00081-.02157-.00521-.13257-.00147-.03662-.006-.14909-.001-.0223-.0057-.13614-.0013-.02849-.00635-.15055-.0013-.02791-.006-.136-.00113-.02368c-.00212-.04964-.00456-.10075-.00684-.15039l-.00147-.03264-.00634-.13436-.001-.02091-.00716-.14884-.00163-.03654-.007-.14022-.00049-.01172-.00781-.15357-.00163-.03027c-.005-.09912-.01058-.20662-.01595-.30574l-.00179-.034-.00813-.15145-.00066-.01025-.00765-.14022-.00227-.03874c-.00277-.04948-.00538-.09782-.00831-.1473l-.00113-.02091-.00765-.13135-.00212-.03719-.00863-.14648-.00162-.02792-.008-.13029-.00179-.03084-.00911-.14909-.00179-.02816-.00831-.13338-.00162-.0249-.00961-.14966-.002-.03125-.00879-.13517-.00146-.021c-.00326-.0494-.00651-.10075-.00993-.15014l-.00212-.0315c-.00309-.0459-.00651-.09871-.00976-.14453l-.00049-.00854-.01042-.15137-.00228-.03255-.01058-.15218-.00016-.00253-.01074-.14966-.00228-.03328-.0109-.15023-.001-.01334-.01042-.14055-.00228-.03092-.01123-.1508-.00146-.01872-.01042-.137-.00228-.0306-.01139-.1464-.00244-.03247-.01009-.12761-.00212-.02775-.01188-.14836-.00244-.03108-.01091-.13485-.00162-.01986-.01254-.15136-.00228-.02873-.01188-.143-.001-.01106-.01286-.15194-.00261-.03011-.01285-.15015-.00017-.00252-.01318-.15145-.00293-.03255c-.00895-.10173-.0179-.20378-.027-.30542l-.0026-.0271-.014-.15462-.00049-.00578-.01351-.14681-.0026-.02938-.01416-.152-.0013-.01253-.01367-.14591-.002-.02076-.01481-.15494-.00163-.01669-.01383-.14355-.00195-.01937-.01514-.1547-.00179-.01856-.015-.1508-.00081-.00724-.01595-.15918-.00163-.01546c-.01058-.10482-.02164-.21281-.03239-.31755l-.002-.01912c-.0109-.10474-.02181-.20842-.03288-.31307l-.00244-.023c-.01107-.10466-.022-.20687-.03336-.31144l-.00228-.022-.01709-.15568-.00065-.00643-.01661-.15031-.00227-.02-.01726-.15536-.00146-.01351-.01644-.14559-.00212-.01847-.01757-.15479-.00212-.01757-.01644-.14323-.002-.01742-.01758-.15112-.00309-.02645-.01693-.144-.00114-.00936-.01839-.15422-.00277-.02343c-.01253-.10425-.02458-.20467-.03727-.30884l-.00293-.02376c-.0127-.10417-.02507-.20533-.03809-.30941l-.00276-.022q-.01929-.15614-.03907-.31226l-.00227-.01766c-.01319-.104-.027-.21216-.04053-.31608l-.00195-.01506-.02051-.15836-.00082-.00659-.02-.15186-.002-.01473-.02083-.15788-.0013-.00927-.02068-.1552-.001-.00708c-.007-.05184-.01416-.106-.02132-.158l-.002-.01505-.021-.1547-.00049-.00285-.02149-.15723-.00244-.01766c-.01432-.10368-.02946-.21273-.0441-.31632l-.00163-.01164c-.01449-.1036-.03-.21314-.04476-.31665l-.00228-.01587c-.01481-.10352-.03044-.212-.04541-.31551l-.00212-.01449-.02311-.15828-.00065-.00415-.02246-.15292-.00228-.015c-.00749-.05168-.0153-.10425-.02311-.15592l-.00163-.01164-.02262-.15072-.00147-.01017-.02376-.15706-.002-.013c-.01563-.10328-.03239-.21273-.04818-.31592l-.00228-.01465c-.01595-.10319-.03223-.20833-.04834-.31144l-.00342-.0223q-.02416-.15454-.04866-.30876l-.00277-.01676c-.01627-.103-.0332-.20834-.0498-.3112l-.00293-.01855c-.0166-.10295-.03386-.20907-.05078-.31194l-.00228-.01481c-.01693-.10278-.03516-.21338-.05225-.31608l-.00179-.0109-.02669-.15975-.00033-.00179-.02718-.16227-.00032-.00114c-.00912-.05477-.01775-.10539-.027-.16016l-.00179-.00993c-.01791-.106-.0363-.21305-.05453-.319l-.0013-.0074c-.01888-.10938-.03662-.21143-.05566-.32072l-.00114-.00635c-.01921-.10929-.03711-.21159-.05648-.3208l-.0013-.00692c-.01937-.10921-.03809-.21419-.05778-.32332l-.00033-.00155c-.01953-.10913-.03906-.21688-.05892-.32593l-.00032-.001c-.02979-.16358-.05974-.32593-.09-.48926l-.00049-.00212c-.02018-.10888-.0402-.21557-.06071-.32438l-.00049-.002c-.0205-.10881-.04052-.2146-.06136-.32325l-.00065-.0039c-.02083-.10873-.04085-.213-.06185-.32162l-.001-.00488c-.021-.10864-.04069-.20955-.062-.31811l-.002-.00953c-.02116-.10856-.0415-.211-.063-.31949l-.00048-.00269A138.90354,138.90354,0,0,0,253.17106,73.48438a21.33333,21.33333,0,1,0-15.5459,39.73372,96.02373,96.02373,0,0,1-34.95849,185.44857h0a96.56565,96.56565,0,0,1-89.75017-61.82251A21.33333,21.33333,0,0,0,73.03011,251.994q1.41993,3.7295,3.0459,7.35425l.00065.00138c.04313.09611.0848.18864.12809.28459l.00375.00822c.0721.16007.14127.3125.214.47216l.0013.00285c.04378.09587.08642.18937.13037.28508l.001.00228.12776.27775.00716.01538c.04037.08764.08545.18489.126.27238l.00732.0157c.0407.08749.084.18067.12484.26815l.01221.02612.07926.16952.00277.0057.04183.08943.0083.01742.07927.16862.006.01261.04231.08968.00538.01131c.02425.05152.05175.10946.07617.16089l.01513.032c.03939.08309.08122.171.12094.25407l.01709.03581c.03955.08309.07828.1639.118.24683l.02246.04679.05648.11751.0249.05168.03467.07178.02457.05078.0516.10693.02881.05941.03336.06869.028.05769.05208.10686.02669.05509.03369.06877.03386.06941.04459.09107.02946.06006.033.06722.035.07145.04557.09245.02767.05615.03337.06738.04866.09847.03141.06332.03174.06412.02849.05746.05175.10392.03044.061.03223.06469.04313.08635.03825.07617.02962.05916.03613.072.04085.08138.03809.07544.02751.05461.04443.08822.03662.07226.0363.07186.0275.05428.05518.10848.02458.04826.04069.08.02376.04646.05648.11084.02506.049.04183.08138.02328.04566.05615.10929.02685.052.04053.07862.03288.06388.04492.08692.03027.05851.04053.07812.03581.06909.04378.08407.02588.05.05583.10718.02425.04638.042.08032.02621.04989.05761.11019.02344.0446.04427.08406.023.04354.06055.11483.021.04.04672.08821.02132.0402.06038.1141.02181.04093.0529.09961.01416.02653.06348.119.01985.03735.06283.11752.00993.01839.05924.11068.01921.03572.0651.12085.01221.02287.05859.10864.01563.02881.06559.1215.0166.03044.057.10506.013.02393.06754.12426.01514.02792.06022.11043.01107.02018.06706.12264.01774.03264.06233.11344.00668.01221.06771.12321.01774.03239.06852.12418.00407.00741.06478.117.01936.03491.06739.12159.00862.01562.06218.11174.01644.0297.06819.12223.013.02328.06055.10823.01481.0267.069.123.01384.02466.06315.11239.00993.01774.0695.12312.01709.03044.06168.10913.01058.0188.0695.1224.01676.02946.07064.12443.00277.00488.07.123.014.02458.07227.1263.00732.0127.06836.11955.01075.01871.07519.13094.00423.00733.07259.126.00782.01359.074.12825.01123.01921.07.12093.00586.01.07471.12866.01106.01912c.05078.08741.10091.17318.15186.2605l.00976.01652c.051.08724.104.1779.15528.26506l.00618.0105c.05127.08715.1058.17968.15723.26668l.00684.01164.07845.13273.00358.00594.07731.13021.00423.00732.08008.13468.00309.005c.05518.09261.10693.17952.16244.272l.00325.00554c.05355.08951.10807.18033.162.26977l.00537.009c.24837.4126.50081.82691.75325,1.23666l.00131.002a139.03321,139.03321,0,0,0,75.70507,59.40169l.00049.00017c.10449.03352.2072.06632.31169.09961l.00374.00122c.10466.03328.20443.06494.30908.098l.0057.00179c.10482.03312.20459.06445.30941.09733l.00342.00106c.10481.03279.20719.06478.31217.09733l.0013.0004q.39332.12207.787.24179l.00049.00016c.10514.0319.20768.06291.31282.09464l.00521.00155c.10531.03174.20508.06169.31055.09318l.00521.00155c.10546.03149.20573.06136.31119.09253l.0044.00138c.10563.03117.20687.06112.3125.092l.00374.00114.15544.04549.00439.0013c.10563.03085.2041.05949.30974.09009l.01074.00309q.15381.04457.30794.08879l.00684.002c.106.03044.20442.05851.31038.08871l.00684.00195q.154.0437.30826.08724l.0114.00317.15364.0433a.01322.01322,0,0,1,.00212.00057l.15055.04207.01091.00309.15153.04224.01074.00293.15088.04183c.00423.00122-.00179-.00049.00244.00073l.153.04216.01383.00382c.10286.02832.20345.05583.30648.084l.00944.0026c.10644.029.20491.05574.31152.08447l.0057.00155c.10644.02881.207.05582.31364.08439l.00537.00146c.16.04273.31673.0844.47689.12663l.00325.0009c.10677.02807.2072.05444.314.08235l.01009.00269c.10026.02612.20752.05395.30778.07991l.01513.00391c.10026.026.2072.05347.30746.0791l.01042.00269c.10367.02653.20605.05257.30989.07894l.01139.00293c.10726.0271.20687.05224.31413.07918l.0044.00106.15657.03922.008.002.15169.03776.00586.00146.15413.03817.01237.00309c.10075.0249.20769.05111.3086.07577l.01367.00341c.10075.02458.207.05046.30794.07487l.01449.0035c.10091.02442.20345.04908.30436.07325l.01986.00472.14892.03556.01481.00358.14258.03377.01367.00334.15137.03572.01579.00367.148.03475.00521.00122.15218.03556.0192.00448c.10108.0236.20459.04752.306.07088l.01514.0035q.15186.035.30371.06966l.02262.00513.15186.0345.00114.00024.14925.03378.02018.00455.15316.03435.00439.00106.14844.03312.0166.00374.15072.03345.01644.00366.14485.032.01058.00236.1517.03329.01839.00407c.10172.02229.20557.04484.30729.06689l.01579.00342c.10172.02205.20752.04476.30924.06657l.01563.00333.15543.03321.00212.0004.15267.03239.01432.003.1556.0328.00684.00147.15218.0319.0096.002.15479.03223.01432.00293c.102.02116.21029.04354.31234.06445l.01253.0026c.10221.02092.20849.04257.31071.06332l.01937.004c.10237.02067.203.04093.30534.06144l.022.00439.15234.03036.00619.00122.14469.02873.02441.0048.14926.02937.0153.003.14453.02832.01334.0026.15316.02979.01758.00333.147.0284.00863.00171.15462.02963.01725.00333c.1027.01961.20573.03923.30843.0586l.02051.0039c.10287.01937.20345.03825.30632.05746l.02229.00407c.10271.0192.20639.03833.30925.05729l.01611.00293.15332.02807.01612.00293.14371.02613.0153.00276.15284.02767.01822.00326.151.0271.00341.00057.15219.0271.02734.00488.14844.02628a.00949.00949,0,0,1,.00146.00025l.152.02669.026.00456c.10319.01807.2.03483.30322.05265l.02474.00431.15186.026.01025.00179.14226.02425.02522.00431.15056.02547.01692.00285.138.02319.02312.00391.14974.025.02164.00359.14274.02368.01335.00219.14958.02458.02881.00472.14518.02368.00537.00082.14925.02417.03076.005.1499.02409c.00456.00073-.00162-.00024.00293.00049l.14779.0236.02914.00456.147.02327.02246.00358.13249.02075.02685.00423.14844.023.02392.00374.13591.021.02116.00326.15006.023.02507.00382.141.02141.013.002.14844.0223.03287.005.14079.02108.00944.00138.1473.02181.03451.00513.14925.02189.00081.00008.14925.02181.03.00432.14925.02156.01563.00228.13883.01986.02718.0039.1499.02125.0197.00276.1403.01978.01953.00276.14958.02084.02929.00407.13526.01871.01871.00261.14877.02034.03043.00415.1473.02c.00456.00057-.001-.00016.00358.00049l.15153.02035.02946.004.15218.02027c.00456.00057-.0013-.00016.00326.0004l.14746.01954.03092.00407.15056.01969.01269.00163.1416.01831.02653.00342.14909.0192.02474.00309.138.01758.0197.00252.15039.01888.02848.00359.14111.01757.01221.00155.1499.01847.03288.00407.14958.01823.00032.00008.15267.01848.03044.00366.15218.01815c.00456.00057-.00212-.00025.00244.00032l.14649.01734.03466.00406.14828.01742.0179.00212.13591.0157.03092.00358.15007.01726.01985.00219.13916.01587.02328.00261.151.01692.02523.00285.14046.01563.01709.00187.15006.01644.03093.00341c.10189.01107.20312.02206.305.03288l.02946.00318.15348.01627.00375.00041.15153.01587.02539.00268.15446.016.01155.00113.14942.0153.01758.00179.15543.01571.02149.0022.13932.01391.0223.0022.15039.01489.02946.00285.14209.01384.012.00122.15349.01473.02783.00268q.15331.01466.30648.029l.0332.0031.15251.01408c.00455.0004-.00261-.00025.00211.00016l.14974.01375.03093.00277.151.01359.019.00171.13818.01229.02849.00252.14974.0131.02718.00236.13541.01172.023.002.15088.01286.03028.00261.13834.01155.01742.00147.1512.01253.03207.0026.14534.01188.0083.00066.14844.012.03792.003.14632.01156.02409.00187.13.01009.03727.00293.14876.01139.02035.00155.13558.01017.03076.00228.14811.011.0319.00236.12972.00944.02865.00211.1473.0105.03564.00252.13395.00944.01937.00139.148.01025.03792.0026.14893.01009.00179.00017.1512.01009.03776.00252.14926.00977.01171.00073.14128.00911.03467.0022.15023.00944.021.0013.13591.00847.03157.00187.14991.00911.02766.00163.13086.00781.03125.00188.14746.00854.03353.002.13477.00765.0223.00122.14909.00839.03483.00187.15169.0083h.00081l.1543.00822.03206.00171.15332.008.01026.00049.14762.00757.02816.00138.15185.00749.02572.0013.13428.00651.02848.0013.15169.00717.02784.0013.13851.00635.02148.001.15234.00684.03207.00138.13981.0061.01627.00074.15072.00634.03646.00147.14355.00594.01335.00049.14583.00586.04053.00154.14941.00578.01384.00049.13965.00521.03662.00138.14892.00537.02653.001.13233.00456.03288.00114.14974.005.02994.001.13591.00439.02311.00082.15137.00472.03515.00106.13282.004.02425.00074.15039.00431.03418.00089.153.00424.00114.00008.15365.004.03483.0009.1512.00382.02116.00049.13314.00318.03955.001.14746.00334.0293.00065.12809.00269.03679.00081.14615.00293.03679.00073.13021.00244.02685.00049.14942.00269.03727.00065.13737.0022.01741.00032.15039.00228.03858.00057c.10091.00146.20573.00293.30664.00415l.03629.00041.15153.00179.01758.00016.13672.00146.03825.00033.14974.00138.02588.00025.13444.00106.0319.00024.15218.00106.02783.00016.13623.00073.02637.00017.15251.00065.03141.00008.14079.00041.01871.00008.15153.00024.03663.00008.154.00008Z"/>
        <path class="cls-8" d="M202.66667,85.33333A117.33326,117.33326,0,0,0,85.33333,202.66667v.12256l.00017.0367.00016.11255v.01131l.00032.12394.00017.03215.00049.10921v.01717l.00065.12305.00016.03125.00081.10856v.01888l.001.12386.00033.029.00081.10661.00032.02262.00114.12289.00033.02889.00114.106.00032.02352.00147.124.00049.02677.0013.10327.00049.02792.00179.12337.00032.02425.00163.10587.00049.02751.00212.12272.00048.0258.00179.10181.00065.03149.00228.12175.00049.024.00212.10336.00065.03181.00277.12313.00032.01628.00244.10978.00082.03117.00293.12427.00032.00936.00293.11792.00065.027.00326.12549.00032.009.0031.11539.001.03223.00358.12345.00017.00554.00341.11735.00114.03515c.00244.08138.005.16407.00782.24545l.00113.03418.00359.11035.00048.01359.00424.12125.00113.03524.00375.10279.00081.02156.0044.11922.0013.03508.00407.10563.00065.01847.00488.12289.00114.02978.00423.10628.001.02043.00488.12028.00147.03475.00439.10067.001.02409.00553.12329.00114.02563.00472.10474.00114.02571.00553.12085.00147.02946.00472.10059.00146.02905.00586.12167.00114.02319.00537.10579.00131.02645.00618.1228.00114.02287.00553.104.00163.03076.00635.12036.0013.02376.00554.10132.002.03369.00651.11849.00146.02458.0057.102.002.03328.007.12.001.0166.00618.10547.00228.03735.00651.10742.00163.02792.00651.10457.00244.03914.00651.10482.00114.01644.00733.11629.00276.04183.00586.09082.00212.03158.00749.1136.00276.04167.00619.09066.00211.03076.00782.1145.00276.03972.00619.08894.0026.03614.00781.11051.00326.04557.00586.082.00277.03849.0083.1119.00325.04353.00586.07984.00326.044.00862.11222.00277.036.00667.08773.00309.03938.00863.1115.00326.03995.00667.08423.00325.04256.009.11141.00309.03728.00683.0839.00359.043.00911.11084.00342.03963.00683.08138.00391.04655.00944.111.0026.03158.00765.08789.00391.04427.00977.11263.00227.026.00847.09538.00374.04093.0096.10824.00245.02677.00911.09888.00374.04159.00912.09944.00309.03239.00944.10156.00407.04354.00944.09912.00179.01872.01107.11621.00374.03866.00928.095.0026.0271.01107.11336.00423.04216.00879.08854.00309.031.0114.11459.00374.036.0096.095.0031.0297.01155.11255.00423.042.00879.08448.00391.0367.01156.11043.00472.04346.00878.08284.00407.03833.01205.11247.00407.038.00927.084.0044.04077.01188.10889.00488.04354.00879.07845.00505.04573.012.107.005.04443.00846.0752.00521.0463.01237.10759.00488.04264.00928.07886.00521.04525.01269.10823.0044.03711.00976.08268.00537.04558.01124.09448.00585.04834.01042.08634.00537.04492.01042.08586.007.05737.01025.0826.00586.04786.01025.08284.00668.05371.01139.09074.0057.04509.01058.08365.005.03964.01319.10319.006.047.01009.07846.00553.04248.01368.10514.00634.04883.00912.06909.00667.05054.01351.102.00667.05053.00944.0704.00668.05037.01367.10165.00732.053.00863.06446.00716.05208.014.10262.00716.05152.00928.0673.00716.05127.01448.10335.00716.05159.00863.061.00814.05835.01416.09928.00732.05087.00944.06665.008.055.01432.1.00733.04973.00976.067.00765.05282.01221.08309.01025.06974.00961.06494.0083.05591.01123.0756.01123.075.00944.0625.009.05917.01074.07112.01058.07024.01156.07511.00781.05078.01221.07983.00944.0608.01188.07731.00846.0546.01074.06779.01172.07544.01156.07349.00846.0533.01139.07178.00863.05412.01432.09009.00912.057.01009.06266.01009.0621.01432.08878.00928.0564.01026.06323.0083.0507.0166.10034.00879.05347.0109.06624.00847.05054.01643.0988.00977.0581.0096.05664.00977.05819.016.09416.01074.06339.00895.05266.01026.06.01676.09717.00928.05428.01058.06047.00976.05623.01628.09383.00993.05689.01123.06429.0096.054.01367.07756.01319.07446.01106.062.00961.0542.01269.07145.01514.08431.01009.056.01091.05966.01106.06168.0166.09082.0101.05575.01123.06079.00992.0542.0184.09977.00992.0542.0114.0612.00944.05045.01985.10685.009.04745.0122.06478.00863.04606.022.11564.00765.04045.013.06827.00814.04314.02132.11141.00863.04508.013.0673.00863.04468.021.10815.00961.0494.01253.06429.00928.04745.01888.09619.01171.05932.01254.06315.00976.04924.02377.12.00683.03418.01351.067.00879.04443.01318.065.01856.09179.01269.06267.00993.04948.01286.06323.01921.09358.01171.05738.01107.05428.01253.0603.01286.06234.01937.09359.00977.04679.014.06738.00782.03776.02474.118.00895.04216.01416.06706.00895.04248.02555.12036.007.03328.01579.0739.00618.029.02816.1311.00684.03206.016.0739.00635.02913.02783.12866.00781.03622.01563.07112.00732.0337.02832.12939.00667.02979.016.07259.00733.03312.03141.14193.00374.01643.01709.07691.00619.02759c.01741.0778.03581.15958.05338.2373l.00635.02848c.01758.07772.03662.16106.05436.23869l.00554.02474c.01774.07772.03613.15764.054.23527l.00831.03573c.0179.07755.03613.15592.05419.23348l.00635.0271c.01888.0813.03613.15486.05534.23608l.00684.02938c.0192.08114.03759.15885.057.23991l.005.02116.01872.07885.00162.00643.037.15414.00667.0275.01872.0778.00033.00131c.01334.05517.02571.1066.03922.16178l.00505.021.01888.07723.00439.01855.03646.14844.00472.01912.01986.08106.00146.0061.04183.16886.001.00383.021.08463.00245.00944c.01269.05144.02653.10629.03938.15772l.00375.01514.02034.08081.00293.012c.02035.08073.04248.16829.063.24894l.00488.01913c.02132.08431.04118.16186.06267.24609l.00374.0144c.02067.08057.04248.16521.06331.24569l.00537.02043c.02084.08048.04281.16471.06381.2452l.00358.01416.0651.24772.00423.01562c.02214.084.04492.16984.06722.25383l.00065.00219c.02328.08757.04509.16887.06853.25643l.00244.009c.0236.08748.0459.17.06966.2574l.00049.00187c.0236.08741.04655.17123.07047.25855l.00114.00447c.07975.2911.16016.57992.242.87012l.00032.0009.0485.17138.00082.00253.02409.085.0013.00439c.02474.087.0485.17017.07357.25708l.00065.00236c.0249.08692.04931.17155.07454.25838l.00049.00171c.02523.08684.05.172.07536.25863l.00032.00146c.02539.08675.0503.17131.07585.2579l.00081.00276c.02556.08667.05013.16968.07585.25627l.0013.00423A117.19522,117.19522,0,0,0,117.61,283.49089l.00244.00252c.3234.34009.64583.67537.97314,1.01155l.00554.00578.11783.12077.00147.00147.06087.06233.001.001c.06136.06291.1193.12191.181.18465l.0083.00855c.05908.06014.117.11889.17611.17887l.0096.00977.17676.17871.00651.00642c.05924.0599.11783.11882.17724.17863l.01091.01091.16878.16919.02279.02279.16959.16918.01172.01164c.05713.05689.11979.11906.17708.17586l.00831.00831c.05989.05932.11669.11556.17675.17472l.01172.01172.175.1722.01318.01286c.05746.05656.11914.11694.17676.17334l.01042.01017.0568.0555.01367.01326.11019.10743.00684.00675c.08414.08179.1639.15926.24821.24089l.00927.009.11263.10872.00912.00879.05778.05583.01156.01107.11311.10872.00684.00676.05469.0524.02083.01994c.0555.05331.11621.11141.17188.16455l.01562.01482c.05827.05566.11312.108.17155.16349l.02165.02051c.05843.05558.11051.10489.16911.1604l.022.02091c.05859.05542.10986.10376.16862.1591l.02246.02116c.05859.05526.11442.10766.17318.16284l.01546.01457c.05615.05265.117.10962.17334.16211l.021.01961.055.05135.00683.00635.10808.10058.02311.02157.05208.04834.02181.02018.09489.088.02409.02238.05469.05054.01009.00928.1053.09708.02328.02157.05013.04606.02978.02743.08806.08089.02539.02335.05208.04769.02393.02181.09391.08586.0236.02156.05029.0459.03174.02889.07682.07.03825.03483.047.04264.0293.02662.09847.08927.016.0144.05192.047.02816.02539.09375.08455.02246.02027.05029.04533.029.026.0944.0848.02132.01912.051.04566.02816.02514.111.0992.00553.005.0516.0459.02718.02433.16374.14559.03727.03312.04687.04151.03369.02978.08285.07341.02913.02571.05176.04566.02637.02319.0887.07812.03141.02767.05.04395.03646.032.0778.0682.03239.02832.05192.04549.027.02352.0848.074.03613.0315.04736.04142.03988.03459.0695.06038.0428.03711.04346.03768.0472.041.06169.05322.04606.03979.04459.03858.0407.03507.0747.06429.03581.03076.0498.04281.03451.02954.07373.06331.04395.03752.04524.03882.03841.03271.07422.06332.03939.03361.04753.04053.03922.03336.068.05778.04557.03866.048.04077.03728.03149.04541.03841.069.05827.05.04224.03418.02873.04851.04093.06982.05868.04508.03784.04037.03385.04394.03695.07178.06006.042.03507.04574.03825.04118.03434.07357.06144.03987.033.04639.03866.04085.03394.06185.05127.05111.04231.05013.04159.03776.03117.07861.065.02783.02295.05778.04769.03874.03174.05566.04581.054.04444.055.04508.03679.03027.05875.048.04981.04077.05664.04622.03678.02995.0586.04777.048.03907.06087.04947.03549.029.06184.05013.0306.02474.075.06079.03629.02937.05713.04615.03516.0284.07926.0638.029.02336.063.05062.02881.02311.08073.06478.03353.02685.05827.04663.03352.02686.08073.06445.03076.0245.061.04874.0306.02434.08154.06477.033.02629.05713.04525.03548.02807.08122.06438.02962.02327.061.04834.03157.02482.083.06535.02816.02222.06348.0498.03271.0258.08366.06551.02246.01766.06885.05387.02864.02238.08562.06682.02311.0179.06884.05371.03028.0236.08773.06812.00911.00716.07992.06185.02929.0227.08448.06535.01692.0131.07666.05908.02979.023.08463.06511.0057.00447.08936.06853.02441.0188.08529.06534.00781.006.08984.06868.027.02059.08285.06323.00765.00578.092.07007.02343.01774.07829.05957.01693.01278.08919.06762.02637.01994.07536.05689.01725.0131.09114.06868.022.01652.07991.06014.016.012.09229.06933.02067.01547.08235.06168.01221.009.09489.071.01839.01375.07943.05917.02018.01513.09082.06747.02311.01717.07178.0533.026.01929.09034.06689.01709.01262.08105.05989.02051.01514.09277.06844.01563.01139.07991.05884.02246.01652.09375.06877.01042.00757.0861.06307.02083.01513.09489.06934.00537.00391.09082.06616.01954.01416.19222.13956.02067.015.19254.13908.01725.01253c.06625.04769.12972.09334.19613.14095l.01628.01172.09456.06779.00326.0022.09879.07072.01546.011.0975.06958.00016.00008.10417.07414.006.00423.09782.0695.00683.0048.10059.07129.01058.00741.09424.06665.00862.0061.10173.0717.00683.0048.09685.06811.00813.0057.10368.07284.00179.00122.10091.07063.00765.00538c.06918.04834.13786.09627.2072.14445l.00716.005c.07145.04972.13851.09627.21012.14583l.00326.00228c.06934.048.13932.09644.20882.14429l.0083.00578c.0695.04785.13949.096.20915.1438l.005.00341.20948.1434.00748.00512.209.14226.00732.005c.07.04745.13965.09473.20964.142l.00635.00431c.0721.04883.13981.09448.21224.14315l.0026.00187c.07243.04867.14193.09538.21435.14388l.00293.002c.14486.097.28776.1923.43311.28865l.00114.00073q.92627.61438,1.86377,1.211l.00081.00049q.33106.21081.66309.41895l.001.00057q.49926.313,1.00081.62052l.00032.00024c.29769.18254.59441.36263.89388.54257l.00359.00219a116.95082,116.95082,0,0,0,13.06656,6.77222,21.33326,21.33326,0,1,0,17.209-39.04207A74.68627,74.68627,0,0,1,202.66667,128h0a74.84793,74.84793,0,0,1,20.9414,2.96493A21.33328,21.33328,0,1,0,235.5402,90.00081q-2.26025-.65844-4.55745-1.22794l-.0044-.00106c-.08154-.02018-.16259-.0402-.24414-.06022L230.7277,88.71l-.112-.02742-.01237-.0031-.2303-.056-.02865-.00692-.10514-.02539-.006-.00147-.11-.02636-.03516-.00847-.07975-.019-.03532-.00838-.105-.02507-.03125-.00732-.07829-.01856-.04231-.01-.0726-.01709-.06412-.01513-.07308-.01709-.05013-.01172-.05957-.01384-.05-.01163-.09619-.02238-.04834-.01115-.06006-.01392-.05615-.01294-.04932-.01131-.1027-.02352-.04411-.01009-.064-.01457-.04167-.00952c-.07764-.01766-.14779-.03353-.22559-.051l-.02734-.00619-.07406-.0166-.01546-.00342-.15722-.03516-.01058-.00236-.08366-.01863-.00782-.00171q-.12792-.02832-.25569-.0564l-.012-.0026a117.19938,117.19938,0,0,0-14.08414-2.19906h-.00017c-.21614-.02042-.43066-.04-.64713-.05924l-.00358-.00033c-.21647-.01928-.43-.03759-.64681-.05566l-.00309-.00025c-.09294-.00773-.18165-.01505-.27474-.02254l-.00375-.00032c-.124-.01-.241-.01929-.36507-.029l-.01432-.00106c-.08529-.00659-.17627-.01359-.26172-.02l-.015-.00114c-.08544-.00643-.18017-.01343-.26562-.0197l-.01025-.00073-.08708-.00635-.00977-.00065c-.08545-.00618-.17334-.01245-.25879-.01839l-.0275-.002-.08024-.00554-.0031-.00024-.17057-.01156-.01806-.00122-.07976-.00537-.02734-.00179c-.08171-.00545-.16406-.01082-.24593-.01611l-.03255-.002-.07439-.0048-.019-.00122-.14941-.00927-.03076-.002-.07455-.00456-.03206-.00195-.1377-.0083-.03027-.00179-.0695-.00415-.04281-.00244-.06884-.00407-.09571-.00545-.05729-.00326L209.3418,85.52l-.06234-.0035-.05225-.00285-.10726-.00586-.04882-.00268-.06543-.0035-.04932-.00261-.06185-.00325-.09782-.005-.0555-.00285-.0625-.00317-.054-.00269-.071-.00358-.0765-.00374-.06917-.00334-.05339-.00252-.06608-.00317-.05078-.00236-.10319-.0048-.04964-.00228-.06494-.00293-.05371-.00236-.08789-.00391-.05762-.00252-.07275-.00309-.0542-.00228-.06852-.00293-.04509-.00187-.10482-.00424-.04931-.002-.07178-.00285-.04557-.00179-.1084-.00415-.03679-.00138-.078-.00293-.05094-.00187-.069-.00253-.06136-.00219-.09245-.00326-.0446-.00154-.07487-.00253-.04459-.00154-.10938-.00358-.03385-.00106-.08415-.00269-.04427-.00138-.08984-.00277-.03109-.00089-.10547-.00318-.04329-.00122-.08318-.00236-.03483-.001-.112-.0031-.03662-.001-.08593-.00228-.03565-.0009-.11474-.00285-.00961-.00024-.11051-.00268-.03679-.00082-.08951-.002-.03158-.00074-.11247-.00244-.03825-.00081-.08235-.00171-.04037-.00081-.11344-.0022-.02181-.00041-.09456-.00171-.04281-.00081-.08773-.00147-.03011-.00057-.11442-.00179-.03418-.00057-.089-.0013-.03467-.00057-.11458-.00154-.02539-.00033-.09652-.0013-.03532-.00041-.097-.00114-.023-.00024-.11524-.00122-.03613-.00041-.08675-.00081-.0363-.00033-.11556-.001-.02327-.00017-.09814-.00065-.03288-.00024-.11117-.00073h-.00879l-.11784-.00057-.03564-.00017-.09147-.0004-.0293-.00009-.11784-.00032-.02653-.00008-.09358-.00017h-.037l-.11751-.00008Z"/>
        <path class="cls-9" d="M202.66667,85.33333h-.0931l-.01693.00008-.07373.00009-.03353.00008-.05713.00008-.0389.00008-.05224.00016-.04069.00017-.05225.00016-.0376.00016-.05371.00025-.04069.00016-.04931.00024-.04216.00025-.049.00032-.04427.00025-.04525.00032-.04606.00033-.04508.00032-.04607.00033-.05045.00041-.03955.00032-.06869.00065-.02262.00025-.091.00089-.02572.00025-.06527.00073-.03239.00032-.06071.00074-.03613.0004-.05078.00065-.047.00057-.04573.00057-.04265.00057-.04866.00073-.043.00057-.04818.00074-.04459.00065-.04574.00073-.04427.00065-.05046.00082-.03971.00065-.05583.001-.0345.00057-.06266.00114-.029.00057-.06966.00122-.022.00049-.09115.00171-.02018.00041-.07145.00146-.03044.00065-.06022.00122-.03434.00074-.05729.0013-.03695.00081-.05371.00122-.03743.00082-.05485.0013-.0389.00089-.04867.00122-.04476.00106-.04427.00114-.04818.00122-.043.00106-.04589.00122-.0472.0013-.04411.00114-.04476.00122-.04671.0013-.03874.00106-.068.002-.07308.00211-.01709.00049-.07325.0022-.03255.001L198.986,85.39l-.03857.00122-.04932.00155-.04671.00147-.04443.00138-.04623.00155-.04459.00146-.04411.00147-.04818.00162-.04313.00147-.04688.00163-.04264.00146-.05225.00187-.03857.0013-.05046.00188-.04117.00146-.04672.00171-.04541.00171-.03873.00146-.0516.002-.02816.001-.10953.00424-.03923.00154-.04915.002-.04134.00162-.04313.00179-.04916.002-.04118.00163-.0498.00211-.04134.00171-.04753.002-.0459.002-.04362.00187-.047.00212-.042.00179-.05045.00227-.03841.00171-.0503.00228-.04069.00179-.05029.00236-.04378.002-.04346.00195-.04915.00236-.04379.002-.0288.00139-.12142.00586-.02474.00122-.05257.0026-.03858.00187-.0568.00285-.03.00155-.05843.00293-.033.00171-.05192.00268-.03955.002-.04769.00252-.0446.00236-.04541.00244-.04346.00228-.04671.00252-.04476.00244-.04541.00245-.04362.00244-.04606.00252-.0459.00252-.04492.00253-.04053.00236-.04964.00276-.04964.00285-.05257.00309-.07617.0044-.02865.00171-.06071.00358-.03857.00228-.051.003-.04492.00276-.04459.00269-.04428.00269-.04573.00284-.04655.00285-.04232.00269-.0472.00293-.04183.0026-.0498.00318-.04021.0026-.04736.003-.04492.00285-.04541.003-.04281.00277-.04736.00309-.03532.00236-.05664.00374-.02376.00163-.062.00415-.08806.00594-.03857.00261-.05257.00366-.04232.00293-.04525.00309-.04492.00317-.04769.00334-.04085.00285-.048.00342-.04134.003-.04964.0035-.04378.00317-.04053.00293-.05127.00374-.0389.00285-.05029.00375-.03792.00276-.05127.00383-.03809.00285-.05208.0039-.0293.0022-.061.00464-.01318.00106c-.07357.00553-.14388.011-.21728.01676l-.03158.00244-.05094.004-.03793.003-.05273.00423-.037.00293-.05029.004-.03825.00309-.05111.00415-.04.00326-.04589.00374-.04281.0035-.05046.00415-.03727.00309-.05.00415-.03889.00326-.05241.00439-.03516.003-.05192.0044-.03662.00309-.05469.00472-.02376.002-.06364.00545-.00667.00057-.1473.01286-.01921.00171-.07292.00642-.013.00114-.06608.00586-.02392.00212-.06169.00553-.02669.00244-.055.005-.03793.00342-.05159.00472-.03353.00309-.05664.00521-.03207.00293-.05615.00521-.03206.003-.05518.0052-.03369.0031-.05778.00545-.01758.00171c-.13558.01278-.27164.026-.40706.03922l-.00814.00082-.06771.00667-.02181.00212-.06054.006-.02767.00277-.06234.00626-.02474.00244-.063.00635-.023.00236-.06787.00692-.01758.00179-.06722.00683-.02164.0022-.06853.00708-.01285.00139-.0726.00748-.01578.00163c-.16537.01725-.33171.035-.49691.0529l-.00342.00032-.08024.00879-.00586.00065-.07552.00822-.013.00147-.075.0083-.00928.00106-.07308.008-.01807.002-.07.00781-.01319.00146-.0734.00831-.013.00146-.07569.00863-.00114.00008c-.19873.02262-.39371.04533-.59212.06885l-.00342.0004-.0804.0096-.0057.00074-.07747.00927-.00928.00106-.1639.01986-.00537.00065-.16667.02051h-.00016c-.2264.02791-.451.05623-.67708.08545l-.00212.00032-.16813.02181-.0013.00017-.08268.0109-.0031.00041-.08089.01066-.00569.00073c-.33529.04435-.67107.09017-1.00521.13737l-.01286.00179-.07617.01074-.00309.00049a116.8891,116.8891,0,0,0-61.37256,28.5092,21.33332,21.33332,0,1,0,28.37467,31.86409A74.53265,74.53265,0,0,1,202.66667,128a21.33333,21.33333,0,0,0,0-42.66667Z"/>
      </g>
    </g>
  </g>
</svg>
